<?xml version="1.0" encoding="UTF-8" standalone="no"?>
<svg width="170px" height="253px" viewBox="0 0 170 253" version="1.1" xmlns="http://www.w3.org/2000/svg" xmlns:xlink="http://www.w3.org/1999/xlink" xmlns:sketch="http://www.bohemiancoding.com/sketch/ns">
    <!-- Generator: Sketch 3.3.3 (12081) - http://www.bohemiancoding.com/sketch -->
    <title>Slice 1</title>
    <desc>Created with Sketch.</desc>
    <defs></defs>
    <g id="Page-1" stroke="none" stroke-width="1" fill="none" fill-rule="evenodd" sketch:type="MSPage">
        <path d="M158.149312,128.746183 C164.434247,140.433581 168,153.800377 168,168 C168,213.839634 130.839634,251 85,251 C39.1603658,251 2,213.839634 2,168 C2,153.800377 5.56575331,140.433581 11.8506883,128.746183 C27.0135174,153.207872 54.1041435,169.5 85,169.5 C115.895856,169.5 142.986483,153.207872 158.149312,128.746183 Z M11.8506883,124.253817 C5.56575331,112.566419 2,99.1996226 2,85 C2,39.1603658 39.1603658,2 85,2 C130.839634,2 168,39.1603658 168,85 C168,99.1996226 164.434247,112.566419 158.149312,124.253817 C142.986483,99.792128 115.895856,83.5 85,83.5 C54.1041435,83.5 27.0135174,99.792128 11.8506883,124.253817 Z" id="Oval-1-Copy-3" stroke-opacity="0" stroke="#FFFFFF" stroke-width="4" fill="#EEEEEE" sketch:type="MSShapeGroup"></path>
        <path d="M152.839286,126.5 C139.297967,103.091096 113.988221,87.3416695 85,87.3416695 C56.0117789,87.3416695 30.7020335,103.091096 17.1607139,126.5 C30.7020335,149.908904 56.0117789,165.65833 85,165.65833 C113.988221,165.65833 139.297967,149.908904 152.839286,126.5 L152.839286,126.5 Z" id="Oval-1-Copy-2" stroke-opacity="0" stroke="#FFFFFF" stroke-width="3" fill="#55B5ED" sketch:type="MSShapeGroup"></path>
    </g>
</svg>